<?xml version="1.0" encoding="utf-8"?>
<!-- Generator: Adobe Illustrator 23.0.1, SVG Export Plug-In . SVG Version: 6.00 Build 0)  -->
<svg version="1.1" id="Layer_1" xmlns="http://www.w3.org/2000/svg" xmlns:xlink="http://www.w3.org/1999/xlink" x="0px" y="0px"
	 viewBox="0 0 1280 2228" style="enable-background:new 0 0 1280 2228;" xml:space="preserve">
<style type="text/css">
	.st0{fill:#0A0A0A;}
	.st1{clip-path:url(#SVGID_2_);}
	.st2{fill:none;stroke:#1A1A1A;stroke-width:1.5;stroke-miterlimit:10;}
	.st3{fill:none;stroke:#1B1B1B;stroke-width:1.5656;stroke-miterlimit:10;}
	.st4{fill:none;stroke:#1B1B1B;stroke-width:1.6311;stroke-miterlimit:10;}
	.st5{fill:none;stroke:#1C1C1C;stroke-width:1.6967;stroke-miterlimit:10;}
	.st6{fill:none;stroke:#1C1C1C;stroke-width:1.7623;stroke-miterlimit:10;}
	.st7{fill:none;stroke:#1D1D1D;stroke-width:1.8278;stroke-miterlimit:10;}
	.st8{fill:none;stroke:#1D1D1D;stroke-width:1.8934;stroke-miterlimit:10;}
	.st9{fill:none;stroke:#1E1E1E;stroke-width:1.9589;stroke-miterlimit:10;}
	.st10{fill:none;stroke:#1E1E1E;stroke-width:2.0245;stroke-miterlimit:10;}
	.st11{fill:none;stroke:#1F1F1F;stroke-width:2.0901;stroke-miterlimit:10;}
	.st12{fill:none;stroke:#1F1F1F;stroke-width:2.1556;stroke-miterlimit:10;}
	.st13{fill:none;stroke:#202020;stroke-width:2.2212;stroke-miterlimit:10;}
	.st14{fill:none;stroke:#212121;stroke-width:2.2868;stroke-miterlimit:10;}
	.st15{fill:none;stroke:#212121;stroke-width:2.3523;stroke-miterlimit:10;}
	.st16{fill:none;stroke:#222222;stroke-width:2.4179;stroke-miterlimit:10;}
	.st17{fill:none;stroke:#222222;stroke-width:2.4835;stroke-miterlimit:10;}
	.st18{fill:none;stroke:#232323;stroke-width:2.549;stroke-miterlimit:10;}
	.st19{fill:none;stroke:#232323;stroke-width:2.6146;stroke-miterlimit:10;}
	.st20{fill:none;stroke:#242424;stroke-width:2.6801;stroke-miterlimit:10;}
	.st21{fill:none;stroke:#242424;stroke-width:2.7457;stroke-miterlimit:10;}
	.st22{fill:none;stroke:#252525;stroke-width:2.8113;stroke-miterlimit:10;}
	.st23{fill:none;stroke:#252525;stroke-width:2.8768;stroke-miterlimit:10;}
	.st24{fill:none;stroke:#262626;stroke-width:2.9424;stroke-miterlimit:10;}
</style>
<rect class="st0" width="1280" height="2228"/>
<g>
	<defs>
		<rect id="SVGID_1_" y="628" width="5120" height="1600"/>
	</defs>
	<clipPath id="SVGID_2_">
		<use xlink:href="#SVGID_1_"  style="overflow:visible;"/>
	</clipPath>
	<g class="st1">
		<line class="st2" x1="262" y1="3204" x2="1259" y2="2207"/>
		<line class="st3" x1="245.05" y1="3129.68" x2="1235.36" y2="2139.36"/>
		<line class="st4" x1="228.09" y1="3055.36" x2="1211.73" y2="2071.73"/>
		<line class="st5" x1="211.14" y1="2981.05" x2="1188.09" y2="2004.09"/>
		<line class="st6" x1="194.18" y1="2906.73" x2="1164.45" y2="1936.45"/>
		<line class="st7" x1="177.23" y1="2832.41" x2="1140.82" y2="1868.82"/>
		<line class="st8" x1="160.27" y1="2758.09" x2="1117.18" y2="1801.18"/>
		<line class="st9" x1="143.32" y1="2683.77" x2="1093.55" y2="1733.55"/>
		<line class="st10" x1="126.36" y1="2609.45" x2="1069.91" y2="1665.91"/>
		<line class="st11" x1="109.41" y1="2535.14" x2="1046.27" y2="1598.27"/>
		<line class="st12" x1="92.45" y1="2460.82" x2="1022.64" y2="1530.64"/>
		<line class="st13" x1="75.5" y1="2386.5" x2="999" y2="1463"/>
		<line class="st14" x1="58.55" y1="2312.18" x2="975.36" y2="1395.36"/>
		<line class="st15" x1="41.59" y1="2237.86" x2="951.73" y2="1327.73"/>
		<line class="st16" x1="24.64" y1="2163.55" x2="928.09" y2="1260.09"/>
		<line class="st17" x1="7.68" y1="2089.23" x2="904.45" y2="1192.45"/>
		<line class="st18" x1="-9.27" y1="2014.91" x2="880.82" y2="1124.82"/>
		<line class="st19" x1="-26.23" y1="1940.59" x2="857.18" y2="1057.18"/>
		<line class="st20" x1="-43.18" y1="1866.27" x2="833.55" y2="989.55"/>
		<line class="st21" x1="-60.14" y1="1791.95" x2="809.91" y2="921.91"/>
		<line class="st22" x1="-77.09" y1="1717.64" x2="786.27" y2="854.27"/>
		<line class="st23" x1="-94.05" y1="1643.32" x2="762.64" y2="786.64"/>
		<line class="st24" x1="-111" y1="1569" x2="739" y2="719"/>
	</g>
</g>
<g>
	<defs>
		
			<rect id="SVGID_3_" x="0" y="628" transform="matrix(-1 -1.224647e-16 1.224647e-16 -1 1279.9996 2856.0007)" width="1280" height="1600"/>
	</defs>
	<clipPath id="SVGID_4_">
		<use xlink:href="#SVGID_3_"  style="overflow:visible;"/>
	</clipPath>
</g>
</svg>
