<?xml version="1.0" encoding="utf-8"?>
<!-- Generator: Adobe Illustrator 23.0.1, SVG Export Plug-In . SVG Version: 6.00 Build 0)  -->
<svg version="1.1" xmlns="http://www.w3.org/2000/svg" xmlns:xlink="http://www.w3.org/1999/xlink" x="0px" y="0px"
	 viewBox="0 0 1280 2228" style="enable-background:new 0 0 1280 2228;" xml:space="preserve">
<style type="text/css">
	.st0{fill:#0A0A0A;}
	.st1{fill:#FFFFFF;}
</style>
<g id="Layer_1">
	<rect class="st0" width="1280" height="2228"/>
	<g>
		<polygon class="st1" points="599.34,1078.7 635.26,1115.25 635.26,1051.02 611.32,1023.87 616.99,1060.94 582.33,1032.74 		"/>
		<polygon class="st1" points="678.75,1078.7 642.83,1115.25 642.83,1051.02 666.77,1023.87 661.1,1060.94 695.76,1032.74 		"/>
	</g>
</g>
<g id="Logo">
	<path class="st1" d="M587.41,1146.66c-0.75-0.42-1.54-0.75-2.39-0.97c-0.85-0.22-1.73-0.34-2.65-0.34c-1.92,0-3.65,0.45-5.21,1.34
		c-1.56,0.9-2.79,2.11-3.7,3.64c-0.91,1.53-1.36,3.24-1.36,5.14c0,1.89,0.45,3.6,1.34,5.14c0.9,1.53,2.11,2.75,3.64,3.66
		c1.53,0.91,3.23,1.36,5.1,1.36c1.97,0,3.73-0.57,5.3-1.72v1.46h5.98v-27.08l-6.05,0.93V1146.66z M587.41,1158.92
		c-0.55,0.52-1.17,0.91-1.87,1.18c-0.7,0.26-1.47,0.39-2.32,0.39c-0.97,0-1.85-0.22-2.63-0.65c-0.78-0.44-1.41-1.03-1.87-1.79
		c-0.46-0.76-0.69-1.61-0.69-2.56c0-0.95,0.23-1.8,0.69-2.56c0.46-0.76,1.08-1.36,1.87-1.79c0.78-0.44,1.66-0.65,2.63-0.65
		c0.82,0,1.59,0.13,2.32,0.39c0.72,0.26,1.34,0.64,1.87,1.14V1158.92z M611.54,1147.21c-1.52-1.31-3.65-1.96-6.39-1.96
		c-1.52,0-3.03,0.18-4.54,0.54c-1.51,0.36-3.07,0.9-4.69,1.62l2.17,4.44c1.29-0.55,2.42-0.95,3.38-1.19
		c0.96-0.25,1.82-0.37,2.6-0.37c1.24,0,2.19,0.24,2.82,0.73c0.63,0.49,0.95,1.23,0.95,2.22v0.97c-1.44-0.37-2.94-0.56-4.48-0.56
		c-2.56,0-4.56,0.52-5.99,1.55c-1.43,1.03-2.15,2.5-2.15,4.39c0,1.2,0.3,2.25,0.92,3.17c0.61,0.92,1.46,1.64,2.54,2.17
		c1.08,0.52,2.32,0.78,3.72,0.78c1.07,0,2.05-0.12,2.93-0.35c0.88-0.24,1.72-0.63,2.52-1.18v1.2h5.98v-12.66
		C613.82,1150.35,613.06,1148.51,611.54,1147.21z M607.84,1160.52c-0.52,0.32-1.1,0.56-1.74,0.71c-0.64,0.15-1.31,0.22-2.04,0.22
		c-0.97,0-1.73-0.17-2.28-0.52c-0.55-0.35-0.82-0.83-0.82-1.46c0-0.62,0.29-1.1,0.86-1.44c0.57-0.34,1.38-0.5,2.43-0.5
		c0.62,0,1.23,0.04,1.83,0.11c0.6,0.07,1.18,0.19,1.76,0.34V1160.52z M627.53,1145.17c1.07,0.03,1.83,0.19,2.28,0.49v5.27
		c-0.4-0.2-0.85-0.35-1.34-0.45c-0.5-0.1-1.01-0.15-1.53-0.15c-0.95,0-1.82,0.22-2.63,0.65c-0.81,0.44-1.46,1.05-1.96,1.85v12.55
		h-6.05v-19.76h6.05v1.98c0.65-0.8,1.41-1.4,2.28-1.81C625.49,1145.38,626.46,1145.17,627.53,1145.17z M643.21,1154.55l9.38,10.83
		h-7.66l-7.58-8.85v8.85h-6.05v-26.14l6.05-0.93v15.39l7.88-8.07h6.76L643.21,1154.55z M668.85,1156.56c0.93,0.85,1.4,2,1.4,3.47
		c0,1.07-0.34,2.04-1.01,2.91c-0.67,0.87-1.58,1.56-2.71,2.05c-1.13,0.5-2.42,0.75-3.87,0.75c-1.54,0-2.99-0.26-4.35-0.77
		c-1.36-0.51-2.53-1.23-3.53-2.15l1.68-1.79c0.87,0.8,1.83,1.41,2.88,1.85c1.05,0.44,2.12,0.65,3.21,0.65
		c1.49,0,2.71-0.31,3.66-0.93c0.95-0.62,1.42-1.43,1.42-2.43c0-0.82-0.28-1.46-0.84-1.92c-0.56-0.46-1.44-0.78-2.63-0.95l-3.25-0.45
		c-1.87-0.27-3.26-0.83-4.16-1.68c-0.91-0.85-1.36-1.99-1.36-3.44c0-1.05,0.3-1.98,0.9-2.8c0.6-0.82,1.42-1.47,2.48-1.94
		c1.06-0.47,2.27-0.71,3.64-0.71c1.37,0,2.65,0.2,3.85,0.6c1.2,0.4,2.37,1.02,3.51,1.87l-1.46,1.87c-1.05-0.72-2.06-1.25-3.04-1.59
		c-0.98-0.34-1.99-0.5-3.01-0.5c-1.3,0-2.34,0.29-3.14,0.86c-0.8,0.57-1.19,1.32-1.19,2.24c0,0.85,0.27,1.49,0.82,1.92
		c0.55,0.44,1.43,0.74,2.65,0.91l3.25,0.45C666.52,1155.17,667.92,1155.72,668.85,1156.56z M677.65,1146.66h5.64v2.35h-5.64v11.5
		c0,1,0.22,1.71,0.67,2.15c0.45,0.44,1.18,0.65,2.2,0.65c0.52,0,0.99-0.04,1.4-0.11c0.41-0.07,0.85-0.2,1.33-0.37v2.43
		c-0.47,0.17-1,0.3-1.59,0.37c-0.59,0.07-1.15,0.11-1.7,0.11c-1.62,0-2.86-0.39-3.73-1.16c-0.87-0.77-1.31-1.89-1.31-3.36v-12.21
		h-4.03v-2.35h4.03v-4.74l2.73-0.71V1146.66z M698.58,1147.97c-1.28-1.12-3.11-1.68-5.47-1.68c-1.15,0-2.29,0.15-3.44,0.45
		c-1.15,0.3-2.39,0.77-3.73,1.42l1.05,2.13c1.12-0.57,2.15-0.99,3.08-1.25c0.93-0.26,1.86-0.39,2.78-0.39c1.62,0,2.85,0.38,3.7,1.14
		c0.85,0.76,1.27,1.89,1.27,3.38v2.47c-1.64-0.85-3.47-1.27-5.49-1.27c-2.29,0-4.11,0.51-5.45,1.53c-1.34,1.02-2.02,2.42-2.02,4.18
		c0,1.12,0.29,2.1,0.88,2.95c0.58,0.85,1.39,1.51,2.43,1.98c1.03,0.47,2.23,0.71,3.6,0.71c1.17,0,2.26-0.18,3.27-0.54
		c1.01-0.36,1.94-0.9,2.78-1.62v1.83h2.69v-12.59C700.51,1150.7,699.87,1149.09,698.58,1147.97z M697.82,1161.38
		c-0.75,0.75-1.58,1.3-2.5,1.64c-0.92,0.35-1.94,0.52-3.06,0.52c-1.39,0-2.53-0.33-3.42-0.99c-0.88-0.66-1.33-1.51-1.33-2.56
		c0-1.1,0.44-1.97,1.33-2.63c0.88-0.66,2.07-0.99,3.57-0.99c1.1,0,2.08,0.12,2.95,0.35c0.87,0.24,1.69,0.62,2.46,1.14V1161.38z
		 M713.02,1146.52v2.54c-0.32-0.12-0.65-0.21-0.97-0.26c-0.32-0.05-0.65-0.07-0.97-0.07c-1.15,0-2.15,0.33-3.01,0.99
		c-0.86,0.66-1.54,1.61-2.04,2.86v12.81h-2.76v-18.71h2.76v2.65c0.57-0.97,1.3-1.72,2.18-2.26c0.88-0.54,1.9-0.8,3.04-0.8
		C711.91,1146.25,712.5,1146.34,713.02,1146.52z"/>
</g>
</svg>
