<?xml version="1.0" encoding="utf-8"?>
<!-- Generator: Adobe Illustrator 23.0.1, SVG Export Plug-In . SVG Version: 6.00 Build 0)  -->
<svg version="1.1" xmlns="http://www.w3.org/2000/svg" xmlns:xlink="http://www.w3.org/1999/xlink" x="0px" y="0px"
	 viewBox="0 0 2543 1106" style="enable-background:new 0 0 2543 1106;" xml:space="preserve">
<style type="text/css">
	.st0{fill:#0A0A0A;}
	.st1{clip-path:url(#SVGID_2_);}
	.st2{fill:none;stroke:#1A1A1A;stroke-width:0.75;stroke-miterlimit:10;}
	.st3{fill:none;stroke:#1A1A1A;stroke-width:0.7719;stroke-miterlimit:10;}
	.st4{fill:none;stroke:#1A1A1A;stroke-width:0.7937;stroke-miterlimit:10;}
	.st5{fill:none;stroke:#1A1A1A;stroke-width:0.8156;stroke-miterlimit:10;}
	.st6{fill:none;stroke:#1A1A1A;stroke-width:0.8374;stroke-miterlimit:10;}
	.st7{fill:none;stroke:#1A1A1A;stroke-width:0.8593;stroke-miterlimit:10;}
	.st8{fill:none;stroke:#1A1A1A;stroke-width:0.8811;stroke-miterlimit:10;}
	.st9{fill:none;stroke:#1A1A1A;stroke-width:0.903;stroke-miterlimit:10;}
	.st10{fill:none;stroke:#1A1A1A;stroke-width:0.9248;stroke-miterlimit:10;}
	.st11{fill:none;stroke:#1A1A1A;stroke-width:0.9467;stroke-miterlimit:10;}
	.st12{fill:none;stroke:#1A1A1A;stroke-width:0.9685;stroke-miterlimit:10;}
	.st13{fill:none;stroke:#1A1A1A;stroke-width:0.9904;stroke-miterlimit:10;}
	.st14{fill:none;stroke:#1A1A1A;stroke-width:1.0123;stroke-miterlimit:10;}
	.st15{fill:none;stroke:#1A1A1A;stroke-width:1.0341;stroke-miterlimit:10;}
	.st16{fill:none;stroke:#1A1A1A;stroke-width:1.056;stroke-miterlimit:10;}
	.st17{fill:none;stroke:#1A1A1A;stroke-width:1.0778;stroke-miterlimit:10;}
	.st18{fill:none;stroke:#1A1A1A;stroke-width:1.0997;stroke-miterlimit:10;}
	.st19{fill:none;stroke:#1A1A1A;stroke-width:1.1215;stroke-miterlimit:10;}
	.st20{fill:none;stroke:#1A1A1A;stroke-width:1.1434;stroke-miterlimit:10;}
	.st21{fill:none;stroke:#1A1A1A;stroke-width:1.1652;stroke-miterlimit:10;}
	.st22{fill:none;stroke:#1A1A1A;stroke-width:1.1871;stroke-miterlimit:10;}
	.st23{fill:none;stroke:#1A1A1A;stroke-width:1.2089;stroke-miterlimit:10;}
	.st24{fill:none;stroke:#1A1A1A;stroke-width:1.2308;stroke-miterlimit:10;}
	.st25{fill:none;stroke:#1A1A1A;stroke-width:1.2527;stroke-miterlimit:10;}
	.st26{fill:none;stroke:#1A1A1A;stroke-width:1.2745;stroke-miterlimit:10;}
	.st27{fill:none;stroke:#1A1A1A;stroke-width:1.2964;stroke-miterlimit:10;}
	.st28{fill:none;stroke:#1A1A1A;stroke-width:1.3182;stroke-miterlimit:10;}
	.st29{fill:none;stroke:#1A1A1A;stroke-width:1.3401;stroke-miterlimit:10;}
	.st30{fill:none;stroke:#1A1A1A;stroke-width:1.3619;stroke-miterlimit:10;}
	.st31{fill:none;stroke:#1A1A1A;stroke-width:1.3838;stroke-miterlimit:10;}
	.st32{fill:none;stroke:#1A1A1A;stroke-width:1.4056;stroke-miterlimit:10;}
	.st33{fill:none;stroke:#1A1A1A;stroke-width:1.4275;stroke-miterlimit:10;}
	.st34{fill:none;stroke:#1A1A1A;stroke-width:1.4493;stroke-miterlimit:10;}
	.st35{fill:none;stroke:#1A1A1A;stroke-width:1.4712;stroke-miterlimit:10;}
</style>
<g id="Layer_1">
	<rect x="0.5" y="-0.5" class="st0" width="2543" height="1106"/>
	<g>
		<defs>
			<rect id="SVGID_1_" width="2543" height="1106"/>
		</defs>
		<clipPath id="SVGID_2_">
			<use xlink:href="#SVGID_1_"  style="overflow:visible;"/>
		</clipPath>
		<g class="st1">
			<g>
				<line class="st2" x1="-11.8" y1="-241.7" x2="1203.55" y2="1286.91"/>
				<line class="st3" x1="-29.9" y1="-217.69" x2="1185.45" y2="1310.92"/>
				<line class="st4" x1="-48" y1="-193.68" x2="1167.35" y2="1334.93"/>
				<line class="st5" x1="-66.09" y1="-169.67" x2="1149.25" y2="1358.93"/>
				<line class="st6" x1="-84.19" y1="-145.66" x2="1131.15" y2="1382.94"/>
				<line class="st7" x1="-102.29" y1="-121.65" x2="1113.05" y2="1406.95"/>
				<line class="st8" x1="-120.39" y1="-97.64" x2="1094.96" y2="1430.96"/>
				<line class="st9" x1="-138.49" y1="-73.64" x2="1076.86" y2="1454.97"/>
				<line class="st10" x1="-156.59" y1="-49.63" x2="1058.76" y2="1478.98"/>
				<line class="st11" x1="-174.68" y1="-25.62" x2="1040.66" y2="1502.99"/>
				<line class="st12" x1="-192.78" y1="-1.61" x2="1022.56" y2="1527"/>
				<line class="st13" x1="-210.88" y1="22.4" x2="1004.46" y2="1551"/>
				<line class="st14" x1="-228.98" y1="46.41" x2="986.36" y2="1575.01"/>
				<line class="st15" x1="-247.08" y1="70.42" x2="968.27" y2="1599.02"/>
				<line class="st16" x1="-265.18" y1="94.43" x2="950.17" y2="1623.03"/>
				<line class="st17" x1="-283.27" y1="118.43" x2="932.07" y2="1647.04"/>
				<line class="st18" x1="-301.37" y1="142.44" x2="913.97" y2="1671.05"/>
				<line class="st19" x1="-319.47" y1="166.45" x2="895.87" y2="1695.06"/>
				<line class="st20" x1="-337.57" y1="190.46" x2="877.77" y2="1719.07"/>
				<line class="st21" x1="-355.67" y1="214.47" x2="859.68" y2="1743.07"/>
				<line class="st22" x1="-373.77" y1="238.48" x2="841.58" y2="1767.08"/>
				<line class="st23" x1="-391.86" y1="262.49" x2="823.48" y2="1791.09"/>
				<line class="st24" x1="-409.96" y1="286.5" x2="805.38" y2="1815.1"/>
				<line class="st25" x1="-428.06" y1="310.5" x2="787.28" y2="1839.11"/>
				<line class="st26" x1="-446.16" y1="334.51" x2="769.18" y2="1863.12"/>
				<line class="st27" x1="-464.26" y1="358.52" x2="751.09" y2="1887.13"/>
				<line class="st28" x1="-482.36" y1="382.53" x2="732.99" y2="1911.14"/>
				<line class="st29" x1="-500.46" y1="406.54" x2="714.89" y2="1935.14"/>
				<line class="st30" x1="-518.55" y1="430.55" x2="696.79" y2="1959.15"/>
				<line class="st31" x1="-536.65" y1="454.56" x2="678.69" y2="1983.16"/>
				<line class="st32" x1="-554.75" y1="478.57" x2="660.59" y2="2007.17"/>
				<line class="st33" x1="-572.85" y1="502.57" x2="642.5" y2="2031.18"/>
				<line class="st34" x1="-590.95" y1="526.58" x2="624.4" y2="2055.19"/>
				<line class="st35" x1="-609.05" y1="550.59" x2="606.3" y2="2079.2"/>
			</g>
			<g>
				<line class="st2" x1="4064.15" y1="-448.27" x2="2535.43" y2="766.93"/>
				<line class="st3" x1="4044.3" y1="-471.28" x2="2515.58" y2="743.92"/>
				<line class="st4" x1="4024.45" y1="-494.28" x2="2495.73" y2="720.92"/>
				<line class="st5" x1="4004.6" y1="-517.28" x2="2475.88" y2="697.91"/>
				<line class="st6" x1="3984.75" y1="-540.29" x2="2456.03" y2="674.91"/>
				<line class="st7" x1="3964.9" y1="-563.29" x2="2436.17" y2="651.9"/>
				<line class="st8" x1="3945.05" y1="-586.3" x2="2416.32" y2="628.9"/>
				<line class="st9" x1="3925.2" y1="-609.3" x2="2396.47" y2="605.89"/>
				<line class="st10" x1="3905.34" y1="-632.31" x2="2376.62" y2="582.89"/>
				<line class="st11" x1="3885.49" y1="-655.31" x2="2356.77" y2="559.88"/>
				<line class="st12" x1="3865.64" y1="-678.32" x2="2336.92" y2="536.88"/>
				<line class="st13" x1="3845.79" y1="-701.32" x2="2317.07" y2="513.87"/>
				<line class="st14" x1="3825.94" y1="-724.33" x2="2297.22" y2="490.87"/>
				<line class="st15" x1="3806.09" y1="-747.33" x2="2277.37" y2="467.86"/>
				<line class="st16" x1="3786.24" y1="-770.34" x2="2257.52" y2="444.86"/>
				<line class="st17" x1="3766.39" y1="-793.34" x2="2237.67" y2="421.86"/>
				<line class="st18" x1="3746.54" y1="-816.35" x2="2217.81" y2="398.85"/>
				<line class="st19" x1="3726.69" y1="-839.35" x2="2197.96" y2="375.85"/>
				<line class="st20" x1="3706.83" y1="-862.36" x2="2178.11" y2="352.84"/>
				<line class="st21" x1="3686.98" y1="-885.36" x2="2158.26" y2="329.84"/>
				<line class="st22" x1="3667.13" y1="-908.36" x2="2138.41" y2="306.83"/>
				<line class="st23" x1="3647.28" y1="-931.37" x2="2118.56" y2="283.83"/>
				<line class="st24" x1="3627.43" y1="-954.37" x2="2098.71" y2="260.82"/>
				<line class="st25" x1="3607.58" y1="-977.38" x2="2078.86" y2="237.82"/>
				<line class="st26" x1="3587.73" y1="-1000.38" x2="2059.01" y2="214.81"/>
				<line class="st27" x1="3567.88" y1="-1023.39" x2="2039.16" y2="191.81"/>
				<line class="st28" x1="3548.03" y1="-1046.39" x2="2019.3" y2="168.8"/>
				<line class="st29" x1="3528.18" y1="-1069.4" x2="1999.45" y2="145.8"/>
				<line class="st30" x1="3508.33" y1="-1092.4" x2="1979.6" y2="122.79"/>
				<line class="st31" x1="3488.47" y1="-1115.41" x2="1959.75" y2="99.79"/>
				<line class="st32" x1="3468.62" y1="-1138.41" x2="1939.9" y2="76.78"/>
				<line class="st33" x1="3448.77" y1="-1161.42" x2="1920.05" y2="53.78"/>
				<line class="st34" x1="3428.92" y1="-1184.42" x2="1900.2" y2="30.78"/>
				<line class="st35" x1="3409.07" y1="-1207.43" x2="1880.35" y2="7.77"/>
			</g>
		</g>
	</g>
</g>
<g id="Isolation_Mode">
</g>
</svg>
