<?xml version="1.0" encoding="utf-8"?>
<!-- Generator: Adobe Illustrator 23.0.1, SVG Export Plug-In . SVG Version: 6.00 Build 0)  -->
<svg version="1.1" id="Layer_1" xmlns="http://www.w3.org/2000/svg" xmlns:xlink="http://www.w3.org/1999/xlink" x="0px" y="0px"
	 viewBox="0 0 2560 800" style="enable-background:new 0 0 2560 800;" xml:space="preserve">
<style type="text/css">
	.st0{clip-path:url(#SVGID_2_);}
	.st1{fill:none;stroke:#1A1A1A;stroke-width:0.75;stroke-miterlimit:10;}
	.st2{fill:none;stroke:#1A1A1A;stroke-width:0.788;stroke-miterlimit:10;}
	.st3{fill:none;stroke:#1A1A1A;stroke-width:0.8259;stroke-miterlimit:10;}
	.st4{fill:none;stroke:#1A1A1A;stroke-width:0.8639;stroke-miterlimit:10;}
	.st5{fill:none;stroke:#1A1A1A;stroke-width:0.9018;stroke-miterlimit:10;}
	.st6{fill:none;stroke:#1A1A1A;stroke-width:0.9398;stroke-miterlimit:10;}
	.st7{fill:none;stroke:#1A1A1A;stroke-width:0.9777;stroke-miterlimit:10;}
	.st8{fill:none;stroke:#1A1A1A;stroke-width:1.0157;stroke-miterlimit:10;}
	.st9{fill:none;stroke:#1A1A1A;stroke-width:1.0537;stroke-miterlimit:10;}
	.st10{fill:none;stroke:#1A1A1A;stroke-width:1.0916;stroke-miterlimit:10;}
	.st11{fill:none;stroke:#1A1A1A;stroke-width:1.1296;stroke-miterlimit:10;}
	.st12{fill:none;stroke:#1A1A1A;stroke-width:1.1675;stroke-miterlimit:10;}
	.st13{fill:none;stroke:#1A1A1A;stroke-width:1.2055;stroke-miterlimit:10;}
	.st14{fill:none;stroke:#1A1A1A;stroke-width:1.2435;stroke-miterlimit:10;}
	.st15{fill:none;stroke:#1A1A1A;stroke-width:1.2814;stroke-miterlimit:10;}
	.st16{fill:none;stroke:#1A1A1A;stroke-width:1.3194;stroke-miterlimit:10;}
	.st17{fill:none;stroke:#1A1A1A;stroke-width:1.3573;stroke-miterlimit:10;}
	.st18{fill:none;stroke:#1A1A1A;stroke-width:1.3953;stroke-miterlimit:10;}
	.st19{fill:none;stroke:#1A1A1A;stroke-width:1.4332;stroke-miterlimit:10;}
	.st20{fill:none;stroke:#1A1A1A;stroke-width:1.4712;stroke-miterlimit:10;}
	.st21{clip-path:url(#SVGID_4_);}
</style>
<rect width="2560" height="800"/>
<g>
	<defs>
		<rect id="SVGID_1_" width="2560" height="800"/>
	</defs>
	<clipPath id="SVGID_2_">
		<use xlink:href="#SVGID_1_"  style="overflow:visible;"/>
	</clipPath>
	<g class="st0">
		<line class="st1" x1="232" y1="1035" x2="730.5" y2="536.5"/>
		<line class="st2" x1="207.92" y1="1018.92" x2="702.55" y2="524.29"/>
		<line class="st3" x1="183.84" y1="1002.84" x2="674.61" y2="512.08"/>
		<line class="st4" x1="159.76" y1="986.76" x2="646.66" y2="499.87"/>
		<line class="st5" x1="135.68" y1="970.68" x2="618.71" y2="487.66"/>
		<line class="st6" x1="111.61" y1="954.61" x2="590.76" y2="475.45"/>
		<line class="st7" x1="87.53" y1="938.53" x2="562.82" y2="463.24"/>
		<line class="st8" x1="63.45" y1="922.45" x2="534.87" y2="451.03"/>
		<line class="st9" x1="39.37" y1="906.37" x2="506.92" y2="438.82"/>
		<line class="st10" x1="15.29" y1="890.29" x2="478.97" y2="426.61"/>
		<line class="st11" x1="-8.79" y1="874.21" x2="451.03" y2="414.39"/>
		<line class="st12" x1="-32.87" y1="858.13" x2="423.08" y2="402.18"/>
		<line class="st13" x1="-56.95" y1="842.05" x2="395.13" y2="389.97"/>
		<line class="st14" x1="-81.03" y1="825.97" x2="367.18" y2="377.76"/>
		<line class="st15" x1="-105.11" y1="809.89" x2="339.24" y2="365.55"/>
		<line class="st16" x1="-129.18" y1="793.82" x2="311.29" y2="353.34"/>
		<line class="st17" x1="-153.26" y1="777.74" x2="283.34" y2="341.13"/>
		<line class="st18" x1="-177.34" y1="761.66" x2="255.39" y2="328.92"/>
		<line class="st19" x1="-201.42" y1="745.58" x2="227.45" y2="316.71"/>
		<line class="st20" x1="-225.5" y1="729.5" x2="199.5" y2="304.5"/>
	</g>
</g>
<g>
	<defs>
		<rect id="SVGID_3_" transform="matrix(-1 -1.224647e-16 1.224647e-16 -1 2560 800)" width="2560" height="800"/>
	</defs>
	<clipPath id="SVGID_4_">
		<use xlink:href="#SVGID_3_"  style="overflow:visible;"/>
	</clipPath>
	<g class="st21">
		<line class="st1" x1="2328" y1="-235" x2="1829.5" y2="263.5"/>
		<line class="st2" x1="2352.08" y1="-218.92" x2="1857.45" y2="275.71"/>
		<line class="st3" x1="2376.16" y1="-202.84" x2="1885.39" y2="287.92"/>
		<line class="st4" x1="2400.24" y1="-186.76" x2="1913.34" y2="300.13"/>
		<line class="st5" x1="2424.32" y1="-170.68" x2="1941.29" y2="312.34"/>
		<line class="st6" x1="2448.39" y1="-154.61" x2="1969.24" y2="324.55"/>
		<line class="st7" x1="2472.47" y1="-138.53" x2="1997.18" y2="336.76"/>
		<line class="st8" x1="2496.55" y1="-122.45" x2="2025.13" y2="348.97"/>
		<line class="st9" x1="2520.63" y1="-106.37" x2="2053.08" y2="361.18"/>
		<line class="st10" x1="2544.71" y1="-90.29" x2="2081.03" y2="373.39"/>
		<line class="st11" x1="2568.79" y1="-74.21" x2="2108.97" y2="385.61"/>
		<line class="st12" x1="2592.87" y1="-58.13" x2="2136.92" y2="397.82"/>
		<line class="st13" x1="2616.95" y1="-42.05" x2="2164.87" y2="410.03"/>
		<line class="st14" x1="2641.03" y1="-25.97" x2="2192.82" y2="422.24"/>
		<line class="st15" x1="2665.11" y1="-9.89" x2="2220.76" y2="434.45"/>
		<line class="st16" x1="2689.18" y1="6.18" x2="2248.71" y2="446.66"/>
		<line class="st17" x1="2713.26" y1="22.26" x2="2276.66" y2="458.87"/>
		<line class="st18" x1="2737.34" y1="38.34" x2="2304.61" y2="471.08"/>
		<line class="st19" x1="2761.42" y1="54.42" x2="2332.55" y2="483.29"/>
		<line class="st20" x1="2785.5" y1="70.5" x2="2360.5" y2="495.5"/>
	</g>
</g>
</svg>
