<?xml version="1.0" encoding="utf-8"?>
<!-- Generator: Adobe Illustrator 23.0.1, SVG Export Plug-In . SVG Version: 6.00 Build 0)  -->
<svg version="1.1" id="Layer_1" xmlns="http://www.w3.org/2000/svg" xmlns:xlink="http://www.w3.org/1999/xlink" x="0px" y="0px"
	 viewBox="0 0 2543 1289" style="enable-background:new 0 0 2543 1289;" xml:space="preserve">
<style type="text/css">
	.st0{clip-path:url(#SVGID_2_);fill:url(#SVGID_3_);}
	.st1{clip-path:url(#SVGID_2_);}
	.st2{clip-path:url(#SVGID_5_);}
	.st3{opacity:0;fill:none;stroke:#1A1A1A;stroke-width:0.8729;stroke-miterlimit:10;}
	.st4{opacity:0.0526;fill:none;stroke:#1A1A1A;stroke-width:0.9171;stroke-miterlimit:10;}
	.st5{opacity:0.1053;fill:none;stroke:#1A1A1A;stroke-width:0.9613;stroke-miterlimit:10;}
	.st6{opacity:0.1579;fill:none;stroke:#1A1A1A;stroke-width:1.0054;stroke-miterlimit:10;}
	.st7{opacity:0.2105;fill:none;stroke:#1A1A1A;stroke-width:1.0496;stroke-miterlimit:10;}
	.st8{opacity:0.2632;fill:none;stroke:#1A1A1A;stroke-width:1.0938;stroke-miterlimit:10;}
	.st9{opacity:0.3158;fill:none;stroke:#1A1A1A;stroke-width:1.138;stroke-miterlimit:10;}
	.st10{opacity:0.3684;fill:none;stroke:#1A1A1A;stroke-width:1.1822;stroke-miterlimit:10;}
	.st11{opacity:0.4211;fill:none;stroke:#1A1A1A;stroke-width:1.2263;stroke-miterlimit:10;}
	.st12{opacity:0.4737;fill:none;stroke:#1A1A1A;stroke-width:1.2705;stroke-miterlimit:10;}
	.st13{opacity:0.5263;fill:none;stroke:#1A1A1A;stroke-width:1.3147;stroke-miterlimit:10;}
	.st14{opacity:0.5789;fill:none;stroke:#1A1A1A;stroke-width:1.3589;stroke-miterlimit:10;}
	.st15{opacity:0.6316;fill:none;stroke:#1A1A1A;stroke-width:1.4031;stroke-miterlimit:10;}
	.st16{opacity:0.6842;fill:none;stroke:#1A1A1A;stroke-width:1.4472;stroke-miterlimit:10;}
	.st17{opacity:0.7368;fill:none;stroke:#1A1A1A;stroke-width:1.4914;stroke-miterlimit:10;}
	.st18{opacity:0.7895;fill:none;stroke:#1A1A1A;stroke-width:1.5356;stroke-miterlimit:10;}
	.st19{opacity:0.8421;fill:none;stroke:#1A1A1A;stroke-width:1.5798;stroke-miterlimit:10;}
	.st20{opacity:0.8947;fill:none;stroke:#1A1A1A;stroke-width:1.6239;stroke-miterlimit:10;}
	.st21{opacity:0.9474;fill:none;stroke:#1A1A1A;stroke-width:1.6681;stroke-miterlimit:10;}
	.st22{fill:none;stroke:#1A1A1A;stroke-width:1.7123;stroke-miterlimit:10;}
	.st23{opacity:0.29;clip-path:url(#SVGID_2_);}
	.st24{opacity:0.29;}
	.st25{clip-path:url(#SVGID_7_);}
	.st26{opacity:0.35;clip-path:url(#SVGID_2_);}
	.st27{opacity:0.35;}
	.st28{clip-path:url(#SVGID_9_);}
</style>
<g>
	<defs>
		<rect id="SVGID_1_" width="2543" height="1289"/>
	</defs>
	<clipPath id="SVGID_2_">
		<use xlink:href="#SVGID_1_"  style="overflow:visible;"/>
	</clipPath>
	
		<radialGradient id="SVGID_3_" cx="1251.6781" cy="1009.1519" r="331.8679" gradientTransform="matrix(0.0273 -1.0379 3.8726 0.1098 -2690.5535 2229.2817)" gradientUnits="userSpaceOnUse">
		<stop  offset="0" style="stop-color:#141414"/>
		<stop  offset="1" style="stop-color:#020202"/>
	</radialGradient>
	<rect class="st0" width="2543" height="1289"/>
	<g class="st1">
		<defs>
			<rect id="SVGID_4_" x="-1" y="-9" width="3281.64" height="1300"/>
		</defs>
		<clipPath id="SVGID_5_">
			<use xlink:href="#SVGID_4_"  style="overflow:visible;"/>
		</clipPath>
		<g class="st2">
			<circle class="st3" cx="1928.97" cy="1357.97" r="633.73"/>
			<circle class="st4" cx="1874.53" cy="1345.35" r="665.81"/>
			<circle class="st5" cx="1820.09" cy="1332.74" r="697.88"/>
			<circle class="st6" cx="1765.66" cy="1320.12" r="729.96"/>
			<circle class="st7" cx="1711.22" cy="1307.5" r="762.03"/>
			<circle class="st8" cx="1656.78" cy="1294.88" r="794.1"/>
			<circle class="st9" cx="1602.35" cy="1282.27" r="826.18"/>
			<circle class="st10" cx="1547.91" cy="1269.65" r="858.25"/>
			<circle class="st11" cx="1493.47" cy="1257.03" r="890.32"/>
			<circle class="st12" cx="1439.04" cy="1244.41" r="922.4"/>
			<circle class="st13" cx="1384.6" cy="1231.8" r="954.47"/>
			<circle class="st14" cx="1330.16" cy="1219.18" r="986.54"/>
			<circle class="st15" cx="1275.73" cy="1206.56" r="1018.62"/>
			<circle class="st16" cx="1221.29" cy="1193.94" r="1050.69"/>
			<circle class="st17" cx="1166.85" cy="1181.33" r="1082.76"/>
			<circle class="st18" cx="1112.42" cy="1168.71" r="1114.84"/>
			<circle class="st19" cx="1057.98" cy="1156.09" r="1146.91"/>
			<circle class="st20" cx="1003.54" cy="1143.47" r="1178.99"/>
			<circle class="st21" cx="949.11" cy="1130.86" r="1211.06"/>
			<circle class="st22" cx="894.67" cy="1118.24" r="1243.13"/>
		</g>
	</g>
	<g class="st23">
		<defs>
			<rect id="SVGID_6_" x="-4" y="-9" class="st24" width="3284.64" height="1307"/>
		</defs>
		<clipPath id="SVGID_7_">
			<use xlink:href="#SVGID_6_"  style="overflow:visible;"/>
		</clipPath>
		<g class="st25">
			<circle class="st3" cx="1928.97" cy="1357.97" r="633.73"/>
			<circle class="st4" cx="1874.53" cy="1345.35" r="665.81"/>
			<circle class="st5" cx="1820.09" cy="1332.74" r="697.88"/>
			<circle class="st6" cx="1765.66" cy="1320.12" r="729.96"/>
			<circle class="st7" cx="1711.22" cy="1307.5" r="762.03"/>
			<circle class="st8" cx="1656.78" cy="1294.88" r="794.1"/>
			<circle class="st9" cx="1602.35" cy="1282.27" r="826.18"/>
			<circle class="st10" cx="1547.91" cy="1269.65" r="858.25"/>
			<circle class="st11" cx="1493.47" cy="1257.03" r="890.32"/>
			<circle class="st12" cx="1439.04" cy="1244.41" r="922.4"/>
			<circle class="st13" cx="1384.6" cy="1231.8" r="954.47"/>
			<circle class="st14" cx="1330.16" cy="1219.18" r="986.54"/>
			<circle class="st15" cx="1275.73" cy="1206.56" r="1018.62"/>
			<circle class="st16" cx="1221.29" cy="1193.94" r="1050.69"/>
			<circle class="st17" cx="1166.85" cy="1181.33" r="1082.76"/>
			<circle class="st18" cx="1112.42" cy="1168.71" r="1114.84"/>
			<circle class="st19" cx="1057.98" cy="1156.09" r="1146.91"/>
			<circle class="st20" cx="1003.54" cy="1143.47" r="1178.99"/>
			<circle class="st21" cx="949.11" cy="1130.86" r="1211.06"/>
			<circle class="st22" cx="894.67" cy="1118.24" r="1243.13"/>
		</g>
	</g>
	<g class="st26">
		<defs>
			<rect id="SVGID_8_" x="-88.2" y="-35" class="st27" width="3280.64" height="1376"/>
		</defs>
		<clipPath id="SVGID_9_">
			<use xlink:href="#SVGID_8_"  style="overflow:visible;"/>
		</clipPath>
		<g class="st28">
			<circle class="st3" cx="1840.77" cy="-68.97" r="633.73"/>
			<circle class="st4" cx="1786.33" cy="-56.35" r="665.81"/>
			<circle class="st5" cx="1731.9" cy="-43.74" r="697.88"/>
			<circle class="st6" cx="1677.46" cy="-31.12" r="729.96"/>
			<circle class="st7" cx="1623.02" cy="-18.5" r="762.03"/>
			<circle class="st8" cx="1568.59" cy="-5.88" r="794.1"/>
			<circle class="st9" cx="1514.15" cy="6.73" r="826.18"/>
			<circle class="st10" cx="1459.71" cy="19.35" r="858.25"/>
			<circle class="st11" cx="1405.28" cy="31.97" r="890.32"/>
			<circle class="st12" cx="1350.84" cy="44.59" r="922.4"/>
			<circle class="st13" cx="1296.4" cy="57.2" r="954.47"/>
			<circle class="st14" cx="1241.97" cy="69.82" r="986.54"/>
			<circle class="st15" cx="1187.53" cy="82.44" r="1018.62"/>
			<circle class="st16" cx="1133.09" cy="95.06" r="1050.69"/>
			<circle class="st17" cx="1078.66" cy="107.67" r="1082.76"/>
			<circle class="st18" cx="1024.22" cy="120.29" r="1114.84"/>
			<circle class="st19" cx="969.78" cy="132.91" r="1146.91"/>
			<circle class="st20" cx="915.35" cy="145.53" r="1178.99"/>
			<circle class="st21" cx="860.91" cy="158.14" r="1211.06"/>
			<circle class="st22" cx="806.47" cy="170.76" r="1243.13"/>
		</g>
	</g>
</g>
</svg>
